HIERARCHY
ROOT Beta:Hips
{
	OFFSET 0.00 0.00 0.00
	CHANNELS 6 Xposition Yposition Zposition Yrotation Xrotation Zrotation
	JOINT Beta:Spine
	{
		OFFSET	0.0000	9.2263	1.5771
		CHANNELS 3 Xrotation Yrotation Zrotation
		JOINT Beta:Spine1
		{
			OFFSET	0.0000	16.2540	-0.1656
			CHANNELS 3 Xrotation Yrotation Zrotation
			JOINT Beta:Spine2
			{
				OFFSET	0.0000	13.6396	-1.2923
				CHANNELS 3 Xrotation Yrotation Zrotation
				JOINT Beta:Neck
				{
					OFFSET	0.0000	13.8774	-4.3542
					CHANNELS 3 Xrotation Yrotation Zrotation
					JOINT Beta:Neck1
					{
						OFFSET	0.0000	4.3400	0.9269
						CHANNELS 3 Xrotation Yrotation Zrotation
						JOINT Beta:Head
						{
							OFFSET	0.0000	4.0266	0.8585
							CHANNELS 3 Xrotation Yrotation Zrotation
							End Site
							{
								OFFSET 0.0000 23.0297 0.1231
							}
						}
					}
				}
				JOINT Beta:LeftShoulder
				{
					OFFSET	6.1442	10.1870	-3.7932
					CHANNELS 3 Zrotation Xrotation Yrotation
					JOINT Beta:LeftArm
					{
						OFFSET	12.3191	-1.1130	-1.7935
						CHANNELS 3 Zrotation Xrotation Yrotation
						JOINT Beta:LeftForeArm
						{
							OFFSET	27.6870	0.0000	0.0000
							CHANNELS 3 Xrotation Zrotation Yrotation
							JOINT Beta:LeftHand
							{
								OFFSET	27.8738	0.0000	0.0000
								CHANNELS 3 Zrotation Yrotation Xrotation
								JOINT Beta:LeftHandThumb1
								{
									OFFSET	2.3785	-1.0029	2.6209
									CHANNELS 3 Zrotation Xrotation Yrotation
									JOINT Beta:LeftHandThumb2
									{
										OFFSET	3.3624	-1.0029	2.8398
										CHANNELS 3 Zrotation Xrotation Yrotation
										JOINT Beta:LeftHandThumb3
										{
											OFFSET	4.5018	-1.3445	2.1783
											CHANNELS 3 Zrotation Xrotation Yrotation
											End Site
											{
												OFFSET 2.6000 -1.0000 1.0000
											}
										}
									}
								}
								JOINT Beta:LeftHandMiddle1
								{
									OFFSET	10.4639	0.6148	0.4298
									CHANNELS 3 Zrotation Xrotation Yrotation
									JOINT Beta:LeftHandMiddle2
									{
										OFFSET	5.7921	0.0000	0.0000
										CHANNELS 3 Zrotation Xrotation Yrotation
										JOINT Beta:LeftHandMiddle3
										{
											OFFSET	3.7132	0.0000	0.0000
											CHANNELS 3 Zrotation Xrotation Yrotation
											End Site
											{
												OFFSET 2.3000 0.0000 0.0000
											}
										}
									}
								}
								JOINT Beta:LeftHandIndex1
								{
									OFFSET	10.3945	0.6148	2.7055
									CHANNELS 3 Zrotation Xrotation Yrotation
									JOINT Beta:LeftHandIndex2
									{
										OFFSET	5.5493	0.0000	0.0000
										CHANNELS 3 Zrotation Xrotation Yrotation
										JOINT Beta:LeftHandIndex3
										{
											OFFSET	3.3911	0.0000	0.0000
											CHANNELS 3 Zrotation Xrotation Yrotation
											End Site
											{
												OFFSET 2.5000 0.0000 0.0000
											}
										}
									}
								}
								JOINT Beta:LeftHandRing1
								{
									OFFSET	10.3252	0.3211	-1.8755
									CHANNELS 3 Zrotation Xrotation Yrotation
									JOINT Beta:LeftHandRing2
									{
										OFFSET	5.4452	0.0000	0.0000
										CHANNELS 3 Zrotation Xrotation Yrotation
										JOINT Beta:LeftHandRing3
										{
											OFFSET	3.7132	0.0000	0.0000
											CHANNELS 3 Zrotation Xrotation Yrotation
											End Site
											{
												OFFSET 2.0000 0.0000 0.0000
											}
										}
									}
								}
								JOINT Beta:LeftHandPinky1
								{
									OFFSET	10.0130	-0.0783	-3.9671
									CHANNELS 3 Zrotation Xrotation Yrotation
									JOINT Beta:LeftHandPinky2
									{
										OFFSET	3.6763	0.0000	0.0000
										CHANNELS 3 Zrotation Xrotation Yrotation
										JOINT Beta:LeftHandPinky3
										{
											OFFSET	2.8113	0.0000	0.0000
											CHANNELS 3 Zrotation Xrotation Yrotation
											End Site
											{
												OFFSET 2.9000 0.0000 0.0000
											}
										}
									}
								}
							}
						}
					}
				}
				JOINT Beta:RightShoulder
				{
					OFFSET	-6.1402	10.1870	-3.7932
					CHANNELS 3 Zrotation Xrotation Yrotation
					JOINT Beta:RightArm
					{
						OFFSET	-12.3231	-1.1130	-1.7935
						CHANNELS 3 Zrotation Xrotation Yrotation
						JOINT Beta:RightForeArm
						{
							OFFSET	-27.6870	0.0000	0.0000
							CHANNELS 3 Xrotation Zrotation Yrotation
							JOINT Beta:RightHand
							{
								OFFSET	-27.8738	0.0000	0.0000
								CHANNELS 3 Zrotation Yrotation Xrotation
								JOINT Beta:RightHandThumb1
								{
									OFFSET	-2.5178	-0.9367	2.5137
									CHANNELS 3 Zrotation Xrotation Yrotation
									JOINT Beta:RightHandThumb2
									{
										OFFSET	-3.2638	-1.0870	2.9669
										CHANNELS 3 Zrotation Xrotation Yrotation
										JOINT Beta:RightHandThumb3
										{
											OFFSET	-4.4165	-1.3703	2.1350
											CHANNELS 3 Zrotation Xrotation Yrotation
											End Site
											{
												OFFSET -2.6000 -1.0000 1.0000
											}
										}
									}
								}
								JOINT Beta:RightHandIndex1
								{
									OFFSET	-10.4665	0.4896	2.7120
									CHANNELS 3 Zrotation Xrotation Yrotation
									JOINT Beta:RightHandIndex2
									{
										OFFSET	-5.3768	0.0000	0.0000
										CHANNELS 3 Zrotation Xrotation Yrotation
										JOINT Beta:RightHandIndex3
										{
											OFFSET	-3.3855	0.0000	0.0000
											CHANNELS 3 Zrotation Xrotation Yrotation
											End Site
											{
												OFFSET -2.6000 0.0000 0.0000
											}
										}
									}
								}
								JOINT Beta:RightHandMiddle1
								{
									OFFSET	-10.7596	0.4896	0.4278
									CHANNELS 3 Zrotation Xrotation Yrotation
									JOINT Beta:RightHandMiddle2
									{
										OFFSET	-5.6168	0.0000	0.0000
										CHANNELS 3 Zrotation Xrotation Yrotation
										JOINT Beta:RightHandMiddle3
										{
											OFFSET	-3.7364	0.0000	0.0000
											CHANNELS 3 Zrotation Xrotation Yrotation
											End Site
											{
												OFFSET -2.3000 0.0000 0.0000
											}
										}
									}
								}
								JOINT Beta:RightHandRing1
								{
									OFFSET	-10.4702	0.3879	-1.9363
									CHANNELS 3 Zrotation Xrotation Yrotation
									JOINT Beta:RightHandRing2
									{
										OFFSET	-5.4013	0.0000	0.0000
										CHANNELS 3 Zrotation Xrotation Yrotation
										JOINT Beta:RightHandRing3
										{
											OFFSET	-3.3916	0.0000	0.0000
											CHANNELS 3 Zrotation Xrotation Yrotation
											End Site
											{
												OFFSET -2.2000 0.0000 0.0000
											}
										}
									}
								}
								JOINT Beta:RightHandPinky1
								{
									OFFSET	-9.9715	-0.1191	-3.9540
									CHANNELS 3 Zrotation Xrotation Yrotation
									JOINT Beta:RightHandPinky2
									{
										OFFSET	-3.6528	0.0000	0.0000
										CHANNELS 3 Zrotation Xrotation Yrotation
										JOINT Beta:RightHandPinky3
										{
											OFFSET	-2.7820	0.0000	0.0000
											CHANNELS 3 Zrotation Xrotation Yrotation
											End Site
											{
												OFFSET -2.9000 0.0000 0.0000
											}
										}
									}
								}
							}
						}
					}
				}
			}
		}
	}
	JOINT Beta:LeftUpLeg
	{
		OFFSET	9.6338	-3.2733	0.0000
		CHANNELS 3 Xrotation Yrotation Zrotation
		JOINT Beta:LeftLeg
		{
			OFFSET	0.0000	-41.7300	-1.7300
			CHANNELS 3 Xrotation Yrotation Zrotation
			JOINT Beta:LeftFoot
			{
				OFFSET	0.0126	-39.1900	-0.8477
				CHANNELS 3 Xrotation Yrotation Zrotation
				JOINT Beta:LeftToeBase
				{
					OFFSET	-0.1833	-12.1931	8.2823
					CHANNELS 3 Xrotation Yrotation Zrotation
					End Site
					{
						OFFSET 0.0000 0.0000 10.1681
					}
				}
			}
		}
	}
	JOINT Beta:RightUpLeg
	{
		OFFSET	-9.6338	-3.2733	0.0000
		CHANNELS 3 Xrotation Yrotation Zrotation
		JOINT Beta:RightLeg
		{
			OFFSET	0.0000	-41.7300	-1.7300
			CHANNELS 3 Xrotation Yrotation Zrotation
			JOINT Beta:RightFoot
			{
				OFFSET	0.0126	-39.1900	-0.8477
				CHANNELS 3 Xrotation Yrotation Zrotation
				JOINT Beta:RightToeBase
				{
					OFFSET	-0.1833	-12.1931	8.2823
					CHANNELS 3 Xrotation Yrotation Zrotation
					End Site
					{
						OFFSET 0.0032 0.0000 10.1681
					}
				}
			}
		}
	}
}
MOTION
Frames: 4
Frame Time: 0.0333333
2.0690 96.5436 10.8577 -2.5099 0.5310 -7.2736 3.0724 -5.1087 0.6627 2.2498 -0.7659 0.4739 2.2380 -0.7559 0.4519 1.4702 -4.8531 9.8316 -0.0000 0.0000 -0.0000 -5.3422 -12.7400 1.8143 1.8422 2.5129 -24.5380 -1.8743 4.9249 -55.5032 0.0000 0.0000 -98.0460 -16.2468 -10.6804 19.7027 4.4807 5.1861 -1.5707 -33.6444 -7.0321 28.9494 3.0266 -10.0000 49.7690 -71.0375 -0.0000 -1.0345 -107.5113 -0.0000 0.0000 -72.2535 0.0000 -0.0000 -76.0379 5.3087 3.0549 -82.7170 -0.0000 -0.0000 -96.1329 -0.0000 -0.0000 -76.5384 0.0000 -3.7072 -94.1592 -0.0000 -0.0000 -59.9269 -0.0000 0.0000 -81.7709 -8.0941 -0.8484 -54.8709 0.0000 -0.0000 -81.1864 -0.0000 -0.0000 -11.3185 -23.5280 1.4639 -4.8870 -15.2587 19.6635 -0.0000 -0.0000 20.3015 -25.1933 -0.6489 -37.9960 -4.4807 5.1861 1.5707 8.6038 -3.9715 -21.5214 -7.8425 -5.1477 -28.8081 48.7611 6.1160 -0.2880 82.7170 -0.0000 -0.0000 96.1329 -0.0000 -0.0000 71.0375 -0.0000 1.0345 107.5113 0.0000 -0.0000 43.8458 0.0000 0.0000 89.4616 -0.0000 3.8032 86.2591 0.0000 0.0000 41.4593 0.0000 -0.0000 95.4659 -7.6677 2.7350 51.6101 0.0000 0.0000 53.4220 -0.0000 -0.0000 -20.1144 10.9007 22.9118 31.9702 6.7728 0.2211 -5.3438 0.5039 -3.3353 -2.3909 -0.0000 0.0000 -35.7289 -7.8755 -20.8532 55.4824 -8.7042 -1.4728 21.4963 -13.4444 19.0355 3.0746 -0.0000 -0.0000 
-1.1174 96.3103 11.7123 -0.3507 1.5520 -5.0867 1.3785 -5.3875 -2.6064 1.2739 -0.8236 0.2439 1.2606 -0.8204 0.2332 1.7093 -5.2598 11.9142 -0.0000 0.0000 -0.0000 -1.6994 -12.0163 0.9020 -0.5040 2.9332 -25.0403 2.3487 7.3697 -53.1545 0.0000 -0.0000 -99.3118 -17.0543 -10.6075 13.6433 4.4807 5.1861 -1.5707 -33.6444 -7.0321 28.9494 3.0266 -10.0000 49.7689 -71.0375 -0.0000 -1.0345 -107.5113 -0.0000 -0.0000 -72.2535 0.0000 -0.0000 -76.0379 5.3087 3.0549 -82.7170 -0.0000 -0.0000 -96.1329 -0.0000 -0.0000 -76.5383 -0.0000 -3.7072 -94.1592 0.0000 -0.0000 -59.9269 -0.0000 -0.0000 -81.7709 -8.0941 -0.8484 -54.8709 -0.0000 -0.0000 -81.1864 0.0000 -0.0000 -13.5626 -22.7455 -5.1461 -12.4768 9.4579 32.9370 0.0000 0.0000 0.0000 -11.8210 12.7781 -27.6681 -4.4807 5.1861 1.5707 8.6038 -3.9715 -21.5214 -7.8425 -5.1477 -28.8081 48.7611 6.1160 -0.2880 82.7170 0.0000 -0.0000 96.1329 0.0000 0.0000 71.0375 0.0000 1.0345 107.5113 0.0000 -0.0000 43.8458 0.0000 0.0000 89.4616 0.0000 3.8032 86.2591 -0.0000 -0.0000 41.4593 0.0000 -0.0000 95.4659 -7.6677 2.7350 51.6101 0.0000 0.0000 53.4219 -0.0000 -0.0000 -21.3170 13.2961 18.0207 37.3624 3.3580 0.2850 -8.3537 1.5775 -8.5350 -2.4969 -0.0000 0.0000 -19.7278 -5.6563 -17.6377 26.5212 -6.2731 -1.1503 25.5243 -7.7992 19.0886 -3.1692 -0.0000 0.0000 
-3.8879 95.2224 12.3278 2.0642 2.0095 -3.9716 0.5582 -5.6444 -3.8114 0.9640 -0.8653 0.3369 0.9522 -0.8636 0.3285 1.0926 -5.0993 11.8002 -0.0000 0.0000 -0.0000 -0.1058 -10.7152 0.3456 -2.4689 3.3141 -24.5698 2.7827 9.5814 -50.5132 0.0000 -0.0000 -101.7199 -18.4011 -10.4597 11.5751 4.4807 5.1861 -1.5707 -33.6444 -7.0321 28.9493 3.0266 -10.0000 49.7690 -71.0375 -0.0000 -1.0345 -107.5113 -0.0000 -0.0000 -72.2535 -0.0000 -0.0000 -76.0379 5.3087 3.0549 -82.7170 -0.0000 -0.0000 -96.1329 -0.0000 -0.0000 -76.5384 -0.0000 -3.7072 -94.1592 0.0000 0.0000 -59.9269 -0.0000 0.0000 -81.7709 -8.0941 -0.8484 -54.8709 0.0000 -0.0000 -81.1864 -0.0000 0.0000 -16.3570 -22.0393 -10.4251 -19.0580 23.8857 34.9612 0.0000 -0.0000 11.5297 -0.9825 18.8613 1.1380 -4.4807 5.1861 1.5707 8.6037 -3.9715 -21.5214 -7.8425 -5.1477 -28.8081 48.7611 6.1160 -0.2880 82.7170 0.0000 -0.0000 96.1329 -0.0000 -0.0000 71.0375 -0.0000 1.0345 107.5113 -0.0000 -0.0000 43.8458 0.0000 -0.0000 89.4616 0.0000 3.8032 86.2591 -0.0000 -0.0000 41.4593 0.0000 0.0000 95.4659 -7.6677 2.7350 51.6101 -0.0000 -0.0000 53.4219 0.0000 0.0000 -19.5965 14.0013 12.2263 38.2143 4.7738 0.5831 -12.4384 5.7784 -8.5675 -3.4548 0.0000 0.0000 -6.8744 -5.1938 -14.3037 1.0375 -8.0800 -1.0263 35.9175 -8.1058 6.9266 -17.5691 -0.5341 8.7477 
-6.3570 93.7124 12.2826 4.4492 1.8157 -4.6798 1.1237 -5.9064 -2.2816 1.4063 -0.8945 0.6250 1.3975 -0.8898 0.6089 0.2039 -4.2387 9.9150 -0.0000 0.0000 -0.0000 -1.7801 -8.1851 0.1441 -3.1718 3.4707 -23.5898 -0.8498 11.0186 -47.5047 0.0000 0.0000 -103.6400 -19.7143 -10.6031 14.4597 4.4807 5.1861 -1.5707 -33.6443 -7.0321 28.9494 3.0266 -10.0000 49.7689 -71.0375 -0.0000 -1.0345 -107.5113 0.0000 0.0000 -72.2535 0.0000 -0.0000 -76.0379 5.3087 3.0549 -82.7170 -0.0000 -0.0000 -96.1329 -0.0000 -0.0000 -76.5383 0.0000 -3.7072 -94.1592 -0.0000 -0.0000 -59.9269 -0.0000 0.0000 -81.7709 -8.0941 -0.8484 -54.8709 0.0000 -0.0000 -81.1864 0.0000 -0.0000 -18.0709 -21.9267 -12.1372 -18.0043 27.8652 24.4518 0.0000 0.0000 44.1214 -2.8460 13.7337 20.1285 -4.4807 5.1861 1.5707 8.6038 -3.9715 -21.5214 -7.8425 -5.1477 -28.8081 48.7611 6.1159 -0.2880 82.7170 0.0000 -0.0000 96.1329 -0.0000 -0.0000 71.0375 -0.0000 1.0345 107.5113 0.0000 -0.0000 43.8458 0.0000 -0.0000 89.4616 0.0000 3.8032 86.2591 -0.0000 0.0000 41.4593 -0.0000 -0.0000 95.4659 -7.6677 2.7350 51.6101 0.0000 -0.0000 53.4219 -0.0000 0.0000 -18.6969 11.6241 9.0648 38.1642 9.3654 0.9278 -16.5729 10.8402 -5.3765 -5.7474 0.0000 0.0000 -9.3236 -4.4399 -12.3478 14.0806 -8.6399 -1.1518 13.5925 -10.9381 10.6629 -14.3749 -0.0000 0.0000 
